grf
version=1
nRows=62
nColumns=19
inDegrees=yes
endheader
time	ground_force_1_vx	ground_force_1_vy	ground_force_1_vz	ground_force_1_px	ground_force_1_py	ground_force_1_pz	ground_moment_1_mx	ground_moment_1_my	ground_moment_1_mz	ground_force_2_vx	ground_force_2_vy	ground_force_2_vz	ground_force_2_px	ground_force_2_py	ground_force_2_pz	ground_moment_2_mx	ground_moment_2_my	ground_moment_2_mz
0.835000	0.000000	0.000000	0.000000	0.000000	0.000000	0.000000	0.000000	0.000000	0.000000	35.038116	583.804321	30.837769	0.213737	0.000000	0.160009	0.000000	-0.099000	-0.000000
0.836000	0.000000	0.000000	0.000000	0.000000	0.000000	0.000000	0.000000	0.000000	0.000000	34.899757	581.577393	31.251234	0.213707	0.000000	0.160042	0.000000	-0.154862	-0.000000
0.837000	0.000000	0.000000	0.000000	0.000000	0.000000	0.000000	0.000000	0.000000	0.000000	34.405628	575.391357	31.074034	0.212940	0.000000	0.159753	0.000000	-0.080362	-0.000000
0.838000	0.000000	0.000000	0.000000	0.000000	0.000000	0.000000	0.000000	0.000000	0.000000	33.773140	575.473877	31.743452	0.212643	0.000000	0.159108	0.000000	-0.140565	-0.000000
0.839000	0.000000	0.000000	0.000000	0.000000	0.000000	0.000000	0.000000	0.000000	0.000000	33.792904	573.246948	32.038780	0.211298	0.000000	0.159233	0.000000	-0.112032	-0.000000
0.840000	0.000000	0.000000	0.000000	0.000000	0.000000	0.000000	0.000000	0.000000	0.000000	33.733608	569.122864	32.156914	0.210360	0.000000	0.159504	0.000000	-0.084514	-0.000000
0.841000	0.000000	0.000000	0.000000	0.000000	0.000000	0.000000	0.000000	0.000000	0.000000	33.476658	568.875488	31.940338	0.210503	0.000000	0.159555	0.000000	-0.104309	-0.000000
0.842000	0.000000	0.000000	0.000000	0.000000	0.000000	0.000000	0.000000	0.000000	0.000000	33.377831	562.854370	32.255360	0.208043	0.000000	0.159905	0.000000	-0.165198	-0.000000
0.843000	0.000000	0.000000	0.000000	0.000000	0.000000	0.000000	0.000000	0.000000	0.000000	32.903465	560.627441	32.097847	0.207549	0.000000	0.159856	0.000000	-0.067255	-0.000000
0.844000	0.000000	0.000000	0.000000	0.000000	0.000000	0.000000	0.000000	0.000000	0.000000	32.053558	558.153076	32.097847	0.208132	0.000000	0.158614	0.000000	-0.046942	-0.000000
0.845000	0.000000	0.000000	0.000000	0.000000	0.000000	0.000000	0.000000	0.000000	0.000000	31.875671	558.153076	31.822206	0.206994	0.000000	0.159797	0.000000	-0.094166	-0.000000
0.846000	0.000000	0.000000	0.000000	0.000000	0.000000	0.000000	0.000000	0.000000	0.000000	31.559429	551.554688	32.314426	0.205974	0.000000	0.159107	0.000000	-0.088926	-0.000000
0.847000	0.000000	0.000000	0.000000	0.000000	0.000000	0.000000	0.000000	0.000000	0.000000	31.500134	547.925537	32.078159	0.204563	0.000000	0.158851	-0.000000	0.007979	0.000000
0.848000	0.000000	0.000000	0.000000	0.000000	0.000000	0.000000	0.000000	0.000000	0.000000	30.492104	552.049561	32.334114	0.203995	0.000000	0.159862	0.000000	-0.058290	-0.000000
0.849000	0.000000	0.000000	0.000000	0.000000	0.000000	0.000000	0.000000	0.000000	0.000000	31.085064	548.337952	31.270920	0.204690	0.000000	0.160059	-0.000000	0.092582	0.000000
0.850000	0.000000	0.000000	0.000000	0.000000	0.000000	0.000000	0.000000	0.000000	0.000000	30.175858	540.749817	31.507187	0.201443	0.000000	0.158896	0.000000	-0.037945	-0.000000
0.851000	0.000000	0.000000	0.000000	0.000000	0.000000	0.000000	0.000000	0.000000	0.000000	29.563135	539.677490	30.936214	0.201591	0.000000	0.159260	-0.000000	0.063887	0.000000
0.852000	0.000000	0.000000	0.000000	0.000000	0.000000	0.000000	0.000000	0.000000	0.000000	29.227127	540.172424	30.463684	0.202141	0.000000	0.159366	-0.000000	0.105017	0.000000
0.853000	0.000000	0.000000	0.000000	0.000000	0.000000	0.000000	0.000000	0.000000	0.000000	29.227127	539.842529	30.345549	0.201653	0.000000	0.159991	-0.000000	0.096045	0.000000
0.854000	0.000000	0.000000	0.000000	0.000000	0.000000	0.000000	0.000000	0.000000	0.000000	28.456280	534.976196	30.010841	0.199920	0.000000	0.159690	-0.000000	0.179109	0.000000
0.855000	0.000000	0.000000	0.000000	0.000000	0.000000	0.000000	0.000000	0.000000	0.000000	28.634167	534.068909	29.558001	0.198684	0.000000	0.159860	-0.000000	0.132103	0.000000
0.856000	0.000000	0.000000	0.000000	0.000000	0.000000	0.000000	0.000000	0.000000	0.000000	27.902851	535.883484	29.302046	0.199825	0.000000	0.159900	-0.000000	0.271216	0.000000
0.857000	0.000000	0.000000	0.000000	0.000000	0.000000	0.000000	0.000000	0.000000	0.000000	27.606375	533.656494	28.967339	0.198299	0.000000	0.160278	-0.000000	0.176865	0.000000
0.858000	0.000000	0.000000	0.000000	0.000000	0.000000	0.000000	0.000000	0.000000	0.000000	27.487785	531.924438	28.238852	0.197864	0.000000	0.160289	-0.000000	0.272238	0.000000
0.859000	0.000000	0.000000	0.000000	0.000000	0.000000	0.000000	0.000000	0.000000	0.000000	26.795998	529.862427	28.356985	0.197374	0.000000	0.160313	-0.000000	0.241028	0.000000
0.860000	0.000000	0.000000	0.000000	0.000000	0.000000	0.000000	0.000000	0.000000	0.000000	26.558815	528.542725	28.061653	0.196847	0.000000	0.159925	-0.000000	0.214020	0.000000
0.861000	0.000000	0.000000	0.000000	0.000000	0.000000	0.000000	0.000000	0.000000	0.000000	26.440224	528.707764	27.077213	0.195621	0.000000	0.160038	-0.000000	0.282609	0.000000
0.862000	0.000000	0.000000	0.000000	0.000000	0.000000	0.000000	0.000000	0.000000	0.000000	26.143745	524.831177	26.722818	0.194415	0.000000	0.160107	-0.000000	0.325044	0.000000
0.863000	0.000000	0.000000	0.000000	0.000000	0.000000	0.000000	0.000000	0.000000	0.000000	26.301867	520.129822	25.876202	0.192745	0.000000	0.159803	-0.000000	0.300953	0.000000
0.864000	0.000000	0.000000	0.000000	0.000000	0.000000	0.000000	0.000000	0.000000	0.000000	25.787968	525.738403	25.777756	0.192275	0.000000	0.160637	-0.000000	0.297578	0.000000
0.865000	0.000000	0.000000	0.000000	0.000000	0.000000	0.000000	0.000000	0.000000	0.000000	27.329660	518.397705	25.738379	0.190285	0.000000	0.160821	-0.000000	0.242982	0.000000
0.866000	0.000000	0.000000	0.000000	0.000000	0.000000	0.000000	0.000000	0.000000	0.000000	25.155479	517.407959	24.537365	0.192492	0.000000	0.159833	-0.000000	0.585413	0.000000
0.867000	0.000000	0.000000	0.000000	0.000000	0.000000	0.000000	0.000000	0.000000	0.000000	25.036888	517.985291	24.261723	0.191677	0.000000	0.161439	-0.000000	0.489112	0.000000
0.868000	0.000000	0.000000	0.000000	0.000000	0.000000	0.000000	0.000000	0.000000	0.000000	24.305573	521.037109	24.635811	0.191264	0.000000	0.160844	-0.000000	0.465442	0.000000
0.869000	0.000000	0.000000	0.000000	0.000000	0.000000	0.000000	0.000000	0.000000	0.000000	24.048624	516.995544	23.178841	0.192784	0.000000	0.160118	-0.000000	0.542939	0.000000
0.870000	0.000000	0.000000	0.000000	0.000000	0.000000	0.000000	0.000000	0.000000	0.000000	23.989330	518.232788	22.627556	0.191093	0.000000	0.160335	-0.000000	0.594640	0.000000
0.871000	0.000000	0.000000	0.000000	0.000000	0.000000	0.000000	0.000000	0.000000	0.000000	23.455666	516.170776	22.568489	0.188212	0.000000	0.160766	-0.000000	0.656272	0.000000
0.872000	0.000000	0.000000	0.000000	0.000000	0.000000	0.000000	0.000000	0.000000	0.000000	23.435902	517.325500	22.351913	0.189672	0.000000	0.161293	-0.000000	0.524965	0.000000
0.873000	0.000000	0.000000	0.000000	0.000000	0.000000	0.000000	0.000000	0.000000	0.000000	22.862709	516.170776	21.977827	0.185921	0.000000	0.161095	-0.000000	0.535540	0.000000
0.874000	0.000000	0.000000	0.000000	0.000000	0.000000	0.000000	0.000000	0.000000	0.000000	22.684822	514.438721	21.485607	0.186258	0.000000	0.161170	-0.000000	0.651955	0.000000
0.875000	0.000000	0.000000	0.000000	0.000000	0.000000	0.000000	0.000000	0.000000	0.000000	22.230221	514.851074	21.505297	0.186981	0.000000	0.161721	-0.000000	0.658819	0.000000
0.876000	0.000000	0.000000	0.000000	0.000000	0.000000	0.000000	0.000000	0.000000	0.000000	22.467403	514.933594	20.619303	0.185643	0.000000	0.161820	-0.000000	0.729744	0.000000
0.877000	0.000000	0.000000	0.000000	0.000000	0.000000	0.000000	0.000000	0.000000	0.000000	21.657028	509.242432	20.855568	0.184646	0.000000	0.161706	-0.000000	0.668356	0.000000
0.878000	0.000000	0.000000	0.000000	0.000000	0.000000	0.000000	0.000000	0.000000	0.000000	22.170923	509.654846	20.068016	0.183978	0.000000	0.161257	-0.000000	0.698197	0.000000
0.879000	0.000000	0.000000	0.000000	0.000000	0.000000	0.000000	0.000000	0.000000	0.000000	21.419844	513.283936	19.693932	0.184280	0.000000	0.162268	-0.000000	0.692755	0.000000
0.880000	0.000000	0.000000	0.000000	0.000000	0.000000	0.000000	0.000000	0.000000	0.000000	21.103600	513.119019	19.398600	0.183956	0.000000	0.162074	-0.000000	0.789331	0.000000
0.881000	0.000000	0.000000	0.000000	0.000000	0.000000	0.000000	0.000000	0.000000	0.000000	21.558201	507.345398	18.807936	0.181507	0.000000	0.161588	-0.000000	0.755279	0.000000
0.882000	0.000000	0.000000	0.000000	0.000000	0.000000	0.000000	0.000000	0.000000	0.000000	21.360548	507.592834	17.882565	0.181124	0.000000	0.161736	-0.000000	0.863802	0.000000
0.883000	0.000000	0.000000	0.000000	0.000000	0.000000	0.000000	0.000000	0.000000	0.000000	21.261723	506.108215	17.921942	0.180832	0.000000	0.161431	-0.000000	0.816422	0.000000
0.884000	0.000000	0.000000	0.000000	0.000000	0.000000	0.000000	0.000000	0.000000	0.000000	20.451347	506.273132	18.276340	0.180469	0.000000	0.161907	-0.000000	0.736835	0.000000
0.885000	0.000000	0.000000	0.000000	0.000000	0.000000	0.000000	0.000000	0.000000	0.000000	19.720032	511.057007	17.941631	0.180101	0.000000	0.162233	-0.000000	0.880975	0.000000
0.886000	0.000000	0.000000	0.000000	0.000000	0.000000	0.000000	0.000000	0.000000	0.000000	20.115335	505.860779	17.390345	0.178156	0.000000	0.162439	-0.000000	0.938350	0.000000
0.887000	0.000000	0.000000	0.000000	0.000000	0.000000	0.000000	0.000000	0.000000	0.000000	19.581673	505.365906	17.350967	0.178183	0.000000	0.161733	-0.000000	0.878106	0.000000
0.888000	0.000000	0.000000	0.000000	0.000000	0.000000	0.000000	0.000000	0.000000	0.000000	18.870123	511.304443	17.272213	0.178371	0.000000	0.162557	-0.000000	0.868748	0.000000
0.889000	0.000000	0.000000	0.000000	0.000000	0.000000	0.000000	0.000000	0.000000	0.000000	18.949184	512.789124	16.839060	0.178408	0.000000	0.163166	-0.000000	0.927624	0.000000
0.890000	0.000000	0.000000	0.000000	0.000000	0.000000	0.000000	0.000000	0.000000	0.000000	18.968950	505.860779	16.445286	0.175375	0.000000	0.162508	-0.000000	0.885993	0.000000
0.891000	0.000000	0.000000	0.000000	0.000000	0.000000	0.000000	0.000000	0.000000	0.000000	18.395758	506.850525	16.583107	0.175500	0.000000	0.162633	-0.000000	0.978083	0.000000
0.892000	0.000000	0.000000	0.000000	0.000000	0.000000	0.000000	0.000000	0.000000	0.000000	17.407494	512.129272	16.976881	0.177080	0.000000	0.163132	-0.000000	0.918042	0.000000
0.893000	0.000000	0.000000	0.000000	0.000000	0.000000	0.000000	0.000000	0.000000	0.000000	17.071484	511.139496	16.898127	0.175778	0.000000	0.162859	-0.000000	0.807373	0.000000
0.894000	0.000000	0.000000	0.000000	0.000000	0.000000	0.000000	0.000000	0.000000	0.000000	17.071486	510.314697	16.346842	0.175060	0.000000	0.163020	-0.000000	0.930825	0.000000
0.895000	0.000000	0.000000	0.000000	0.000000	0.000000	0.000000	0.000000	0.000000	0.000000	17.190075	505.200958	15.716801	0.172631	0.000000	0.162861	-0.000000	1.021078	0.000000
0.896000	0.000000	0.000000	0.000000	0.000000	0.000000	0.000000	0.000000	0.000000	0.000000	16.320404	508.500122	16.228708	0.173247	0.000000	0.163383	-0.000000	0.940723	0.000000
